<?xml version="1.0" encoding="UTF-8"?>
<svg id="a" data-name="Camada 1" xmlns="http://www.w3.org/2000/svg" viewBox="0 0 70 70">
  <path d="M65.85,39.11c6.79,7.51-12.89,18.33-28.8,18.33s-26.91-8.39-28.8-18.33C3.67,14.99,47.29-.34,37.05,20.77c-14.93,30.78,23.45,12.42,28.8,18.33Z" fill="#e6e6e6"/>
  <path d="M62.8,40.88c6.79,7.51-12.89,18.33-28.8,18.33S7.09,50.83,5.2,40.88C.62,16.77,44.24,1.44,34,22.55c-14.93,30.78,23.45,12.42,28.8,18.33Z" fill="#3f3d56"/>
  <path d="M8.43,20.71s.06,0,.09,0c.02,0,.04.02.06.03h.02s.02.03.02.03c.01.01.02.02.03.03v.02s.02.02.02.02c0,.01.01.03.01.04v.02s0,.02,0,.02c0,.02,0,.05,0,.07,0,.03-.02.06-.04.08-.02.02-.04.04-.07.06-.03.01-.06.02-.09.03h0c-1.63.19-2.95.47-3.86.81-.46.17-.81.35-1.04.54-.23.19-.34.36-.34.52,0,.14.05.29.2.46.15.17.38.34.68.52.61.35,1.52.68,2.64.98,2.25.6,5.36,1.05,8.74,1.2,3.39.15,6.52-.03,8.81-.43,1.15-.2,2.08-.45,2.72-.75.32-.15.56-.3.73-.45.16-.15.24-.3.24-.44,0-.16-.08-.34-.3-.55-.22-.21-.55-.42-.99-.63-.89-.42-2.18-.82-3.8-1.15h0s-.06-.02-.08-.03-.05-.04-.06-.06-.03-.05-.03-.08c0-.03,0-.06,0-.09v-.02s.02-.04.04-.06v-.02s.05-.03.06-.05h.02s.04-.03.06-.03h.02s.05,0,.07,0c1.73.35,3.09.77,4.02,1.23.46.23.83.48,1.07.73.25.26.38.54.37.84-.02.49-.45.9-1.11,1.23-.67.33-1.62.61-2.78.83-2.32.43-5.53.61-9.1.46-3.57-.16-6.75-.62-9.02-1.25-1.14-.32-2.06-.68-2.69-1.07-.62-.38-1.02-.83-1-1.32.01-.3.17-.56.44-.8.27-.23.65-.45,1.13-.63.96-.38,2.35-.68,4.09-.88h0Z" fill="#47a138" stroke="#47a138" stroke-width="2"/>
  <path d="M9.14,27.79c.6,1.13,1.48,2.09,2.56,2.77,1.08.68,2.32,1.07,3.6,1.13,1.28.05,2.55-.23,3.68-.82,1.13-.59,2.09-1.47,2.78-2.55-4.22.06-8.43-.12-12.63-.52Z" fill="#47a138"/>
  <path d="M22.56,24.31c.36-1.08.46-2.22.3-3.34-.16-1.12-.58-2.19-1.22-3.13-.64-.93-1.5-1.7-2.49-2.25-.99-.55-2.1-.85-3.23-.9-1.13-.04-2.26.18-3.29.64-1.03.47-1.94,1.17-2.65,2.05-.71.88-1.21,1.92-1.46,3.02-.25,1.11-.23,2.26.04,3.36,4.62.79,9.32.97,13.99.54Z" fill="#47a138"/>
  <path d="M17.31,20.43c.47,0,.85-.38.85-.85s-.38-.85-.85-.85-.85.38-.85.85.38.85.85.85Z" fill="#fff"/>
  <path d="M12.92,23.75c.78,0,1.41-.64,1.41-1.43s-.63-1.43-1.41-1.43-1.41.64-1.41,1.43.63,1.43,1.41,1.43Z" fill="#fff"/>
  <path d="M12.66,39.91c.21,0,.38-.17.38-.38s-.17-.38-.38-.38-.38.17-.38.38.17.38.38.38Z" fill="#e6e6e6"/>
  <path d="M15.65,35.39c.11,0,.19-.09.19-.19s-.09-.19-.19-.19-.19.09-.19.19.09.19.19.19Z" fill="#e6e6e6"/>
  <path d="M30.25,46.77c.11,0,.19-.09.19-.19s-.09-.19-.19-.19-.19.09-.19.19.09.19.19.19Z" fill="#e6e6e6"/>
  <path d="M56.07,44.91c.11,0,.19-.09.19-.19s-.09-.19-.19-.19-.19.09-.19.19.09.19.19.19Z" fill="#e6e6e6"/>
  <path d="M49.92,50.58c.11,0,.19-.09.19-.19s-.09-.19-.19-.19-.19.09-.19.19.09.19.19.19Z" fill="#e6e6e6"/>
  <path d="M27.28,37.8c.11,0,.19-.09.19-.19s-.09-.19-.19-.19-.19.09-.19.19.09.19.19.19Z" fill="#e6e6e6"/>
  <path d="M28.78,28.5c.11,0,.19-.09.19-.19s-.09-.19-.19-.19-.19.09-.19.19.09.19.19.19Z" fill="#e6e6e6"/>
  <path d="M30.06,15.54c.11,0,.19-.09.19-.19s-.09-.19-.19-.19-.19.09-.19.19.09.19.19.19Z" fill="#e6e6e6"/>
  <path d="M19.77,51.08c.11,0,.19-.09.19-.19s-.09-.19-.19-.19-.19.09-.19.19.09.19.19.19Z" fill="#e6e6e6"/>
  <path d="M49.54,44.23c.11,0,.19-.09.19-.19s-.09-.19-.19-.19-.19.09-.19.19.09.19.19.19Z" fill="#e6e6e6"/>
  <path d="M15.38,30.03c.48,0,.87-.38.87-.85s-.39-.85-.87-.85-.87.38-.87.85.39.85.87.85Z" fill="#fff"/>
  <path d="M57.83,33.25l-2.9-2.39c.17-.33.28-.7.3-1.08s-.02-.75-.14-1.11c-.12-.36-.31-.69-.56-.97-.25-.28-.55-.51-.89-.67-.64-.3-1.37-.35-2.04-.14-.68.21-1.25.67-1.6,1.28-.33.57-.45,1.23-.34,1.87.11.64.44,1.23.93,1.66.49.43,1.12.67,1.78.68.65.01,1.29-.2,1.81-.6l2.9,2.39c.12.1.28.15.44.13.16-.02.3-.09.4-.21.1-.12.15-.28.13-.44-.02-.16-.09-.3-.21-.4ZM53.98,30.85c-.3.36-.71.6-1.16.69-.46.09-.93.02-1.34-.2-.41-.22-.73-.58-.91-1.01-.18-.43-.2-.91-.06-1.35.14-.45.42-.83.81-1.09.39-.26.85-.37,1.32-.33.46.05.9.25,1.22.58.33.33.53.76.58,1.23.03.26,0,.53-.08.78-.08.25-.2.49-.37.69Z" fill="#47a138"/>
  <path d="M60.55,28.99c-.86,0-1.56-.7-1.56-1.56s.7-1.56,1.56-1.56,1.56.7,1.56,1.56-.7,1.56-1.56,1.56Z" fill="#ff5031"/>
  <path d="M59.68,28.21s-.09-.04-.13-.07c-.02-.02-.04-.05-.06-.07s-.02-.06-.01-.09c0-.02,0-.04.02-.06.01-.02.03-.03.05-.04.06-.03.13-.03.2,0v-.49s.07,0,.07,0v.58s-.06-.02-.06-.02c-.05-.03-.13-.05-.18-.02-.01,0-.02.02-.03.03,0,.01-.01.02-.01.04,0,.02,0,.04,0,.06,0,.02.02.04.04.06.06.05.16.07.27.09v.05c-.07,0-.13-.02-.18-.03Z"/>
  <path d="M59.01,27.5l.37.06v.07s-.38-.06-.38-.06v-.07Z"/>
  <path d="M60.9,27.5l-.37.06v.07s.38-.06.38-.06v-.07Z"/>
  <path d="M56.45,30.62c-.11-.06-.23-.08-.35-.06-.12.01-.23.07-.32.15-.09.08-.15.19-.18.3-.03.12-.02.24.02.36.04.11.12.21.22.28.1.07.22.11.34.11.12,0,.24-.04.34-.11l.03-.02.04.02,3.28,1.45c.09.04.18.05.28.03.09-.02.18-.07.24-.15l.83-.99-.81-.64-.5.49-.03.03h-.04s-3.03-.85-3.03-.85h-.04s-.01-.04-.01-.04c0-.03-.02-.06-.04-.09-.06-.11-.14-.2-.25-.25Z" fill="none" stroke="#000"/>
  <path d="M59.94,31.83l1.14.89s.07.04.11.05c.04,0,.08.01.12,0,.04,0,.08-.02.11-.05.03-.02.06-.06.08-.09l.71-1.25c.13-.17.18-.38.16-.59-.03-.21-.14-.4-.3-.53-.17-.13-.38-.19-.58-.16-.21.03-.4.13-.53.3l-1.04.99s-.05.06-.07.1-.02.08-.02.12c0,.04.01.08.03.12.02.04.05.07.08.09h0Z" fill="#47a138"/>
  <path d="M58.44,42.03l.35,2.86h.65v-2.86s-1,0-1,0Z" fill="none" stroke="#000"/>
  <path d="M59.71,44.71h-1.53c-.13,0-.26.03-.37.07-.12.05-.23.12-.32.21s-.16.2-.21.32c-.05.12-.07.25-.07.37v.03h2.51s0-1.01,0-1.01Z" fill="#dee9ea"/>
  <path d="M56.4,41.84l.35,2.86h.65v-2.86s-1,0-1,0Z" fill="none" stroke="#000"/>
  <path d="M57.67,44.52h-1.53c-.13,0-.26.03-.37.07-.12.05-.23.12-.32.21s-.16.2-.21.32c-.05.12-.07.25-.07.37v.03h2.51s0-1.01,0-1.01Z" fill="#dee9ea"/>
  <path d="M63,37.92c-.17.49-.48.92-.9,1.22-.42.3-.92.47-1.44.48h-.04c-.4.01-.87-.12-1.34-.3-.91-.37-1.79-.96-2.02-1.12l.39,3.8.16,1.54s0,.08-.01.12c-.01.04-.03.07-.06.1-.03.03-.06.05-.1.07-.04.02-.08.02-.12.02h-.99c-.06,0-.12-.02-.17-.06-.05-.04-.09-.09-.1-.15l-1.63-6.2c-.05-.19-.05-.38-.01-.57.04-.19.13-.36.25-.51.12-.15.28-.26.45-.34.18-.08.37-.11.56-.1l3.38.23-.24-.94,3.02-.2h0c.07.06.14.11.21.17.17.14.32.31.44.49.23.32.37.7.42,1.09.05.39,0,.79-.13,1.16Z" fill="#2f2e41"/>
  <path d="M63,37.92c-.17.49-.48.92-.9,1.22-.42.3-.92.47-1.44.48-.5-.25-.97-.53-1.43-.85l.06.55.5,4.79s0,.08-.01.12c-.01.04-.03.07-.06.1-.03.03-.06.05-.1.07-.04.02-.08.02-.12.02h-.99c-.06,0-.12-.02-.17-.06-.05-.04-.09-.09-.1-.15l-.58-2.21-1.05-3.99c-.05-.19-.05-.38-.01-.57.04-.19.13-.36.25-.51.12-.15.28-.26.45-.34.18-.08.37-.11.56-.1l3.38.23-.24-.94,1.71-.11c.23.32.37.7.42,1.09.05.39,0,.79-.13,1.16Z" fill="#2f2e41"/>
  <path d="M62.27,35.41h.02s.53-2.59.53-2.59c0-.02.44-2.26-.88-3.42l-.02-.16s-.02-.08-.04-.11c-.02-.03-.05-.06-.09-.09-.03-.02-.07-.04-.12-.04-.04,0-.08,0-.12.01l-1.24.39c-.07.02-.13.07-.17.13-.04.06-.05.14-.03.21l.12.46c-.17.2-2.14,2.57-1.45,4.4l.31,1.2,3.18-.39Z" fill="#47a138"/>
  <path d="M60.35,32.62l1.43.18s.08,0,.12-.01c.04-.01.08-.03.11-.06.03-.03.05-.06.07-.1.02-.04.02-.08.02-.12l-.03-1.44c.03-.21-.03-.42-.16-.58-.13-.17-.32-.27-.53-.3-.21-.03-.42.03-.58.16-.17.13-.27.32-.3.53l-.39,1.38s-.01.08,0,.12c0,.04.02.08.04.11.02.03.05.06.09.08.03.02.07.04.11.04Z" fill="#47a138"/>
  <path d="M61.65,24.99c-.23-.02-.42,0-.56.04-.07.02-.13.03-.16.05-.02,0-.03.01-.04.02,0,0,0,0-.01,0,0,0,0,0,0,0,0,0,0,0,0,0h0s-.02,0-.02,0h-.02c-.55-.03-.93.09-1.2.27-.27.18-.44.43-.54.69-.1.26-.14.52-.15.72,0,.1,0,.18,0,.24,0,.01,0,.02,0,.03l1.86.08.17-.32.08-.15.04.17c.19.77.12,1.47,0,1.97-.06.25-.13.46-.19.6,0,.02-.01.04-.02.05l2.33-1.08-.02-.37v-.2s.12.15.12.15l.21.24.28-.16.04-.24v-.07s.08.02.08.02l.12.03-.92-1.66c-.47-.84-1.04-1.09-1.49-1.14Z" fill="none" stroke="#000"/>
  <path d="M60.3,32.65v.04s-.05.01-.05.01l-3.04.82h-.04s-.03-.01-.03-.01c-.02-.02-.05-.04-.08-.06-.1-.06-.22-.09-.34-.09-.12,0-.24.05-.33.12-.1.07-.17.18-.21.29-.04.12-.04.24,0,.36.04.12.1.22.2.29.09.08.21.12.33.13.12,0,.24-.02.35-.08s.19-.15.24-.26l.02-.03h.04s3.56-.42,3.56-.42c.09-.01.18-.05.25-.12.07-.07.11-.15.13-.25l.21-1.27-1.02-.14-.18.68Z" fill="none" stroke="#000"/>
  <path d="M25.2,48.05s-.04-.08-.07-.11c-.01-.01-.02-.02-.04-.03-.11-.07-.27-.09-.37,0-.01,0-.02.02-.03.03-.03.04-.06.07-.09.11-.05.06-.11.12-.16.18-.02.02-.03.03-.05.05,0,0-.02.02-.03.03-.04.03-.07.07-.11.1-.02.02-.04.04-.06.05-.03.03-.06.05-.09.08,0,0,0,0,0,0,0,0,0,0,0,0,0,0,0,0,0,0,0,0,0,0,0,0,0,0-.02.01-.02.01,0,0,0,0,0,0,0,0-.02.01-.02.02-.07.05-.15.11-.22.15-.19.12-.39.23-.59.31-.01,0-.03.01-.04.02-.54.22-1.12.31-1.7.25-.06,0-.12-.01-.18-.02-.07,0-.14-.02-.2-.04-.26-.05-.51-.13-.75-.23-.3-.14-.59-.31-.86-.5-.04-.03-.08-.06-.13-.09.05-.12.09-.23.14-.35.02-.06.04-.11.07-.17.17-.44.33-.89.48-1.33.15-.45.3-.91.44-1.37.01-.05.03-.09.04-.14.07-.24.14-.48.21-.73,0-.02.01-.05.02-.07.02-.07.04-.14.06-.21.04-.16-.05-.35-.22-.38-.08-.02-.16,0-.24.03-.07.04-.12.11-.15.19-.02.07-.04.13-.05.2-.09.33-.18.65-.28.97-.01.05-.03.09-.04.14-.21.7-.45,1.4-.7,2.09-.03.08-.06.17-.09.25-.02.04-.03.08-.05.12-.03.08-.06.16-.09.24-.02.05-.04.09-.05.14-.01.03-.02.06-.04.09-.12-.04-.24-.07-.37-.09h-.02c-.1-.01-.19-.01-.29,0-.14.02-.28.07-.41.14-.12.08-.23.18-.31.3-.2.31-.2.76.08,1.02.29.27.72.27,1.06.1.18-.1.33-.24.44-.41.04-.06.08-.13.11-.19,0,0,.02.01.03.02.03.02.07.05.1.07.19.14.39.26.6.37.45.22.94.37,1.44.43.01,0,.02,0,.03,0,.06,0,.11.01.17.02.8.06,1.6-.1,2.31-.47.06-.03.12-.06.18-.1.09-.05.18-.11.27-.17.05-.03.09-.07.14-.1.2-.15.39-.31.56-.5.07-.07.13-.14.19-.21.06-.06.09-.14.09-.22,0-.04,0-.07-.02-.11ZM18.32,49.04s.02-.01.03-.02c0,0-.01.01-.03.02h0ZM18.45,48.91s-.02.02-.03.03c-.03.03-.06.06-.09.09,0,0,0,0-.01.01h0s-.01,0-.02,0c-.02.01-.04.02-.05.03-.04.01-.07.02-.11.03-.03,0-.06,0-.09,0h0s-.04-.01-.06-.02c0,0-.02-.01-.03-.02,0,0,0,0,0,0,0,0,0,0-.01-.01h0s0,0,0,0h0s0-.02-.01-.02c0,0,0,0,0,0,0-.01,0-.02,0-.03,0-.02,0-.04,0-.06,0-.03.01-.05.02-.08,0-.02.02-.04.03-.05,0,0,0,0,0-.02t0,0s.01-.01.02-.02c.01-.01.02-.02.04-.03.02-.02.05-.03.07-.04.04-.01.08-.03.12-.03.06,0,.12,0,.18,0,.06,0,.11.02.17.04-.03.07-.07.13-.12.19,0,0,0,0,0,0ZM17.99,48.77s0,.01-.01.02c0,0,0-.01.01-.02Z" fill="#fff"/>
  <path d="M23.95,43.81c0,.13,0,.26-.01.39,0,.29-.02.58-.02.87,0,.33-.02.65-.03.98,0,.17,0,.34-.01.5-.01.45-.03.91-.04,1.36,0,.05,0,.09,0,.14,0,.22-.01.45-.02.67,0,.24-.01.49-.02.73,0,.18-.01.37-.02.55-.04,1.33-.07,2.65-.11,3.98,0,.08-.03.16-.09.22s-.14.09-.22.09c-.08,0-.16-.03-.22-.09-.06-.06-.09-.14-.09-.22.02-.75.04-1.49.06-2.24.02-.67.04-1.35.06-2.02,0-.22.01-.44.02-.67,0-.33.02-.67.03-1,0-.05,0-.09,0-.14,0-.04,0-.08,0-.12.02-.65.04-1.3.05-1.95,0-.26.01-.51.02-.77,0-.29.02-.58.02-.88,0-.13,0-.26.01-.38,0-.08.03-.16.09-.22.06-.06.14-.09.22-.09.08,0,.16.03.22.09.06.06.09.14.09.22Z" fill="#fff"/>
  <path d="M41.04,43.89c-.33,1.24-.72,2.46-1.17,3.65-.12.33-.25.66-.39.99l.03-.07c-.06.16-.14.3-.23.44,0,0-.01.02-.02.03.03-.04.04-.05.02-.02-.01.01-.02.03-.03.04-.03.03-.06.06-.09.09,0,0-.02.01-.03.02l.04-.03s-.04.02-.05.03c-.03.02-.07.04-.1.05l.07-.03c-.06.02-.12.04-.18.05h.08c-.06,0-.12,0-.18,0h.08s-.1,0-.14-.03l.07.03s-.05-.02-.07-.04c-.01,0-.05-.03,0,0,.05.04,0,0,0,0,0,0-.02-.02-.02-.02-.04-.04.04.06.02.02-.01-.02-.03-.04-.04-.07l.03.07s-.02-.07-.03-.11v.08s0-.09.01-.14v.08c0-.05.01-.1.03-.15l-.03.07s.03-.06.05-.1c0-.02.02-.03.03-.04,0,0-.05.06-.02.03,0,0,.01-.02.02-.03.01-.01.03-.02.04-.04.04-.04-.06.04-.01,0,.04-.02.07-.04.11-.06l-.07.03c.07-.03.14-.05.21-.06h-.08c.09,0,.18,0,.27.01h-.08c.11,0,.22.04.33.08l-.07-.03c.22.1.42.24.62.38.19.14.39.26.6.37.45.22.94.37,1.44.44.72.09,1.45,0,2.12-.27.67-.27,1.27-.7,1.73-1.25.06-.06.09-.14.09-.22,0-.08-.03-.16-.09-.22-.11-.1-.33-.13-.44,0-.1.13-.22.25-.34.36-.06.05-.11.1-.17.15-.03.03-.07.06-.1.08-.02.01-.07.05.01,0-.02.01-.04.03-.05.04-.26.19-.55.35-.84.48l.07-.03c-.32.13-.66.23-1,.28h.08c-.36.04-.71.04-1.07-.01h.08c-.35-.04-.7-.13-1.03-.27l.07.03c-.32-.14-.62-.32-.9-.52-.15-.11-.3-.21-.46-.29-.19-.1-.39-.16-.6-.18-.39-.05-.79.11-1.01.45-.2.31-.2.76.08,1.02.29.27.72.27,1.06.1.32-.16.52-.51.66-.83.31-.73.58-1.47.84-2.21.25-.74.48-1.48.69-2.24.03-.09.05-.19.08-.28.04-.16-.05-.35-.22-.38-.08-.02-.16,0-.24.03-.07.04-.12.11-.15.19h0Z" fill="#fff"/>
  <path d="M44.15,43.81l-.11,3.98-.11,3.96-.06,2.24c0,.08.03.16.09.22.06.06.14.09.22.09.08,0,.16-.04.22-.09.06-.06.09-.14.09-.22l.11-3.98.11-3.96.06-2.24c0-.08-.03-.16-.09-.22s-.14-.09-.22-.09c-.08,0-.16.03-.22.09-.06.06-.09.14-.09.22Z" fill="#fff"/>
  <path d="M32.92,51.03c-.16.73-.55,1.4-1.11,1.89-.04.04-.08.07-.12.11-.1,0-.21.02-.31.03-.08,0-.17.02-.25.02h-.02s-.01-.09-.01-.09l-.04-.37c-.16-.27-.26-.57-.3-.89-.03-.32,0-.63.11-.93.15-.4.41-.75.67-1.1.36-.48.71-.96.72-1.55.18.23.32.48.44.75-.11.05-.2.12-.28.21-.02.03-.05.06-.03.09.01.03.05.03.08.04.07,0,.14.01.21.02.06,0,.11.01.17.02.07.22.11.45.14.68.04.36.02.73-.06,1.08Z" fill="#fff"/>
  <path d="M34.78,49.56c-.33.24-.52.58-.67.96-.15.05-.29.14-.4.25-.02.03-.05.06-.03.09.01.03.05.03.08.04.07,0,.14.01.21.02-.15.45-.29.91-.55,1.29-.18.25-.4.46-.67.61-.07.04-.15.08-.22.11-.28.02-.56.04-.83.07-.1,0-.21.02-.31.03-.09,0-.17.02-.25.02,0-.03,0-.06,0-.09.02-.81.32-1.6.85-2.21.03-.03.05-.06.08-.09.27-.29.59-.53.94-.71.55-.29,1.17-.42,1.79-.39Z" fill="#47a138"/>
  <path d="M31.46,52.74l-.06.19-.03.1c-.09,0-.17.02-.25.02h-.02c-.09.01-.18.02-.28.03-.02-.03-.05-.06-.07-.09-.58-.7-.86-1.61-.78-2.52.08-.91.52-1.75,1.22-2.34-.07.39.01.75.15,1.12-.02,0-.03.01-.04.02-.11.05-.2.12-.28.21-.02.03-.05.06-.03.09.01.03.05.03.08.04.07,0,.14.01.21.02.06,0,.11.01.17.02.03,0,.05,0,.08,0,0,0,0,.02.01.02.16.34.33.69.43,1.05.02.09.04.18.06.27.04.31.02.63-.08.93-.1.3-.26.57-.48.8Z" fill="#47a138"/>
  <path d="M35.87,46.81c-.36-.7-.91-1.28-1.56-1.72-.65-.43-1.4-.69-2.18-.76-.1,0-.2-.01-.31-.02-.12,0-1.95.52-2.56.95-.61.42-1.11.99-1.47,1.64-.35.66-.53,1.4-.5,2.15.03.75.24,1.48.61,2.14.37.65.89,1.2,1.51,1.61.64.41,1.28,1.48,2.03,1.52.76.04,1.62-.98,2.31-1.29.69-.31,1.29-.8,1.73-1.41.43-.6.71-1.3.81-2.03.11-.75.06-1.53-.2-2.24-.07-.18-.14-.36-.23-.54-.07-.15-.29-.2-.43-.11-.07.04-.12.11-.14.19-.02.08-.01.16.03.24.04.09.08.17.12.26l-.03-.07c.14.34.24.7.29,1.06v-.08c.04.4.04.8-.01,1.19v-.08c-.04.4-.15.78-.3,1.15l.03-.07c-.08.19-.17.37-.28.54-.05.09-.11.17-.17.26-.03.04-.05.07-.08.11-.04.05.05-.06.01-.02,0,0-.01.02-.02.02-.02.02-.04.05-.06.07-.13.15-.27.3-.42.43-.04.03-.08.07-.12.1-.02.02-.04.03-.06.05,0,0,.07-.05.03-.02-.01,0-.02.02-.04.03-.08.06-.16.12-.25.17-.2.12-.4.23-.61.32l.07-.03c-.37.15-.75.26-1.15.31h.08c-.39.04-.79.04-1.19,0h.08c-.36-.04-.71-.13-1.04-.27l.07.03c-.19-.08-.38-.18-.56-.29-.09-.06-.17-.11-.26-.18-.01,0-.02-.02-.04-.03-.04-.03.03.02.03.02-.02-.02-.04-.03-.06-.05-.04-.03-.08-.07-.12-.1-.16-.14-.3-.29-.44-.44-.03-.04-.07-.08-.1-.12-.01-.02-.04-.05.02.02,0,0-.02-.02-.02-.03-.02-.02-.04-.05-.05-.07-.06-.08-.12-.17-.17-.26-.12-.2-.23-.41-.32-.63l.03.07c-.15-.36-.25-.73-.3-1.12v.08c-.04-.35-.04-.71,0-1.07v.08c.04-.34.13-.68.26-1l-.03.07c.08-.2.18-.39.3-.58.06-.09.12-.18.18-.27.01-.02.03-.04.04-.06.01-.02.05-.06-.01.02,0,0,.01-.02.02-.02.04-.04.07-.09.11-.13.14-.16.29-.32.45-.46.04-.04.08-.07.12-.11.02-.02.04-.03.06-.05,0,0,.02-.01.02-.02-.08.07-.02.02,0,0,.09-.07.18-.13.27-.19.2-.13.42-.24.64-.34l-.07.03c.32-.14,1.75-.45,2.01-.42h-.08c.38.04.76.15,1.11.3l-.07-.03c.18.08.35.16.52.26.08.05.17.1.25.16.04.03.08.05.11.08.02.01.04.03.06.04.01,0,.02.02.03.02.04.03-.06-.05-.01-.01.15.12.3.25.43.38.07.07.13.14.19.21.03.04.06.07.09.11.02.02.07.09,0,0,.02.02.03.04.05.06.13.18.25.37.35.56.07.15.29.2.43.11.07-.04.12-.11.14-.19.02-.08.01-.16-.03-.24Z" fill="#fff"/>
  <path d="M18.23,49.3c.25,0,.46-.2.46-.46s-.2-.46-.46-.46-.46.2-.46.46.2.46.46.46Z" fill="#fff"/>
  <path d="M45.65,48.47c.25,0,.46-.2.46-.46s-.2-.46-.46-.46-.46.2-.46.46.2.46.46.46Z" fill="#fff"/>
  <path d="M44.32,44.24c.25,0,.46-.2.46-.46s-.2-.46-.46-.46-.46.2-.46.46.2.46.46.46Z" fill="#fff"/>
  <path d="M25.25,48.02c0,.12-.05.23-.13.31-.08.08-.19.13-.31.14-.12,0-.23-.03-.32-.11-.09-.08-.14-.18-.16-.3-.01-.12.02-.23.09-.32.07-.09.18-.15.29-.17.12-.02.23.01.33.08.1.07.16.17.18.28,0,.03,0,.06,0,.09Z" fill="#fff"/>
  <path d="M23.96,43.78c0,.12-.05.23-.13.31-.08.08-.19.13-.31.14-.12,0-.23-.03-.32-.11-.09-.08-.14-.18-.16-.3-.01-.12.02-.23.09-.32.07-.09.18-.15.29-.17.12-.02.23.01.33.08.1.07.16.17.18.28,0,.03,0,.06,0,.09Z" fill="#fff"/>
  <path d="M39.17,49.47c.25,0,.46-.2.46-.46s-.2-.46-.46-.46-.46.2-.46.46.2.46.46.46Z" fill="#fff"/>
</svg>